<svg xmlns="http://www.w3.org/2000/svg" viewBox="0 0 823 545" width="823" height="545" role="img" aria-label="Skill Radar" font-family="ui-sans-serif, -apple-system, BlinkMacSystemFont, 'Segoe UI', Roboto, Helvetica, Arial, sans-serif"><text x="411.5" y="27" text-anchor="middle" font-size="15" font-weight="700" fill="#00d9ff">Skill Radar</text><g transform="translate(423.6,291.0)"><polygon points="0.0,-212.0 165.7,-132.2 206.7,47.2 92.0,191.0 -92.0,191.0 -206.7,47.2 -165.7,-132.2" fill="none" stroke="#334155" stroke-width="1" opacity="0.85"/><polygon points="0.0,-159.0 124.3,-99.1 155.0,35.4 69.0,143.3 -69.0,143.3 -155.0,35.4 -124.3,-99.1" fill="none" stroke="#334155" stroke-width="1" opacity="0.72"/><polygon points="0.0,-106.0 82.9,-66.1 103.3,23.6 46.0,95.5 -46.0,95.5 -103.3,23.6 -82.9,-66.1" fill="none" stroke="#334155" stroke-width="1" opacity="0.60"/><polygon points="0.0,-53.0 41.4,-33.0 51.7,11.8 23.0,47.8 -23.0,47.8 -51.7,11.8 -41.4,-33.0" fill="none" stroke="#334155" stroke-width="1" opacity="0.47"/><line x1="0" y1="0" x2="0.0" y2="-212.0" stroke="#1e293b" stroke-width="1"/><line x1="0" y1="0" x2="165.7" y2="-132.2" stroke="#1e293b" stroke-width="1"/><line x1="0" y1="0" x2="206.7" y2="47.2" stroke="#1e293b" stroke-width="1"/><line x1="0" y1="0" x2="92.0" y2="191.0" stroke="#1e293b" stroke-width="1"/><line x1="0" y1="0" x2="-92.0" y2="191.0" stroke="#1e293b" stroke-width="1"/><line x1="0" y1="0" x2="-206.7" y2="47.2" stroke="#1e293b" stroke-width="1"/><line x1="0" y1="0" x2="-165.7" y2="-132.2" stroke="#1e293b" stroke-width="1"/><g><animateTransform attributeName="transform" type="scale" values="0.04;1" dur="1.1s" calcMode="spline" keyTimes="0;1" keySplines="0.22 1 0.36 1" fill="freeze"/><polygon points="0.0,-201.4 152.5,-121.6 186.0,42.5 82.8,171.9 -80.9,168.1 -181.9,41.5 -135.9,-108.4" fill="#00d9ff" fill-opacity="0.20" stroke="#38bdf8" stroke-width="2.2" stroke-linejoin="round"/><circle cx="0.0" cy="-201.4" r="3.6" fill="#00d9ff" stroke="#38bdf8" stroke-width="1.2"/><circle cx="152.5" cy="-121.6" r="3.6" fill="#00d9ff" stroke="#38bdf8" stroke-width="1.2"/><circle cx="186.0" cy="42.5" r="3.6" fill="#00d9ff" stroke="#38bdf8" stroke-width="1.2"/><circle cx="82.8" cy="171.9" r="3.6" fill="#00d9ff" stroke="#38bdf8" stroke-width="1.2"/><circle cx="-80.9" cy="168.1" r="3.6" fill="#00d9ff" stroke="#38bdf8" stroke-width="1.2"/><circle cx="-181.9" cy="41.5" r="3.6" fill="#00d9ff" stroke="#38bdf8" stroke-width="1.2"/><circle cx="-135.9" cy="-108.4" r="3.6" fill="#00d9ff" stroke="#38bdf8" stroke-width="1.2"/></g><text x="0.0" y="-237.0" text-anchor="middle" font-size="13" font-weight="600" fill="#f1f5f9">ASP.NET Core &amp; C#</text><text x="0.0" y="-222.0" text-anchor="middle" font-size="11" fill="#94a3b8">95%</text><text x="181.4" y="-149.6" text-anchor="start" font-size="13" font-weight="600" fill="#f1f5f9">Deep Learning &amp; CV</text><text x="181.4" y="-134.6" text-anchor="start" font-size="11" fill="#94a3b8">92%</text><text x="226.2" y="55.6" text-anchor="start" font-size="13" font-weight="600" fill="#f1f5f9">Data Warehouse &amp; ETL</text><text x="226.2" y="70.6" text-anchor="start" font-size="11" fill="#94a3b8">90%</text><text x="100.7" y="223.0" text-anchor="start" font-size="13" font-weight="600" fill="#f1f5f9">Relational Databases</text><text x="100.7" y="238.0" text-anchor="start" font-size="11" fill="#94a3b8">90%</text><text x="-100.7" y="223.0" text-anchor="end" font-size="13" font-weight="600" fill="#f1f5f9">Angular &amp; Next.js</text><text x="-100.7" y="238.0" text-anchor="end" font-size="11" fill="#94a3b8">88%</text><text x="-226.2" y="55.6" text-anchor="end" font-size="13" font-weight="600" fill="#f1f5f9">QA &amp; Testing (E2E/Unit)</text><text x="-226.2" y="70.6" text-anchor="end" font-size="11" fill="#94a3b8">88%</text><text x="-181.4" y="-149.6" text-anchor="end" font-size="13" font-weight="600" fill="#f1f5f9">CI/CD &amp; DevOps</text><text x="-181.4" y="-134.6" text-anchor="end" font-size="11" fill="#94a3b8">82%</text></g></svg>